
<svg viewBox="0 0 100 100" xmlns="http://www.w3.org/2000/svg" aria-label="Trustrium App Logo">
  <defs>
    <linearGradient id="shield-bevel-gradient-file" x1="0.5" y1="0" x2="0.5" y2="1">
      <stop offset="0%" stop-color="#6B7280" />
      <stop offset="100%" stop-color="#374151" />
    </linearGradient>
    <linearGradient id="shield-face-gradient-file" x1="0.5" y1="0" x2="0.5" y2="1">
      <stop offset="0%" stop-color="#374151" />
      <stop offset="100%" stop-color="#1F2937" />
    </linearGradient>
    <linearGradient id="t-gradient-file" x1="0.5" y1="0" x2="0.5" y2="1">
      <stop offset="0%" stop-color="#C4B5FD" />
      <stop offset="50%" stop-color="#8B5CF6" />
      <stop offset="100%" stop-color="#7C3AED" />
    </linearGradient>
    <filter id="shield-glow-file" x="-50%" y="-50%" width="200%" height="200%">
        <feDropShadow dx="0" dy="4" stdDeviation="8" flood-color="#A45BF1" flood-opacity="0.6" />
    </filter>
  </defs>
  
  <g filter="url(#shield-glow-file)">
    <!-- 1. Outermost shadow/extrusion -->
    <path 
      d="M50 2.5 L95 25 V60 C95 85, 65 100, 50 100 C35 100, 5 85, 5 60 V25 Z"
      fill="#111827"
      transform="translate(0, 1)"
    />
    
    <!-- 2. Main Bevel -->
    <path 
      d="M50 2.5 L95 25 V60 C95 85, 65 100, 50 100 C35 100, 5 85, 5 60 V25 Z"
      fill="url(#shield-bevel-gradient-file)"
    />
    
    <!-- 3. Shield inner face -->
    <path 
      d="M50 8 L90 28 V60 C90 82, 63 95, 50 95 C37 95, 10 82, 10 60 V28 Z"
      fill="url(#shield-face-gradient-file)"
    />
  </g>
  
  <!-- 'T' Symbol -->
  <g transform="translate(0, 4)">
    <!-- T extrusion/shadow -->
    <path 
      d="M35 30 H65 V38 H54 V70 H46 V38 H35 Z" 
      fill="#4C1D95"
      transform="translate(0.5, 1)"
    />
    <ellipse cx="50" cy="54" rx="18" ry="7" 
      fill="none" 
      stroke="#4C1D95" 
      stroke-width="4.5"
      transform="translate(0.5, 1)"
    />

    <!-- T Main Shape -->
    <path 
      d="M35 30 H65 V38 H54 V70 H46 V38 H35 Z" 
      fill="url(#t-gradient-file)"
    />
    <ellipse cx="50" cy="54" rx="18" ry="7" 
      fill="none" 
      stroke="url(#t-gradient-file)" 
      stroke-width="4"
    />
  </g>
</svg>
